Fly_normalized_Motion_pl11
version=1
nRows=10
nColumns=43
inDegrees=yes
endheader
time		pelvis_tilt		pelvis_list		pelvis_rotation		pelvis_tx		pelvis_ty		pelvis_tz		hip_flexion_r		hip_adduction_r		hip_rotation_r		knee_angle_r		ankle_angle_r		subtalar_angle_r		mtp_angle_r		hip_flexion_l		hip_adduction_l		hip_rotation_l		knee_angle_l		ankle_angle_l		subtalar_angle_l		mtp_angle_l		lumbar_extension		lumbar_bending		lumbar_rotation		neck_flexion		neck_lateral_bending		neck_rotation		arm_flex_r		arm_add_r		arm_rot_r		elbow_flex_r		pro_sup_r		wrist_flex_r		wrist_dev_r		hand_finger_flex_r		arm_flex_l		arm_add_l		arm_rot_l		elbow_flex_l		pro_sup_l		wrist_flex_l		wrist_dev_l		hand_finger_flex_l		
1.980000		1.073372		-3.420119		90.635533		-0.023113		1.396914		0.776043		30.465763		-6.530091		-19.077646		-29.760672		-24.275109		3.344822		23.938103		22.890932		-4.193819		-18.878106		-20.284031		-22.626717		4.907838		6.654073		-24.627619		2.115376		1.556669		-27.850638		5.940955		-1.354279		-45.956653		-40.698336		-12.437609		51.805934		135.120419		8.598151		-6.608443		-27.539491		-74.034489		-38.736805		-28.679986		66.540926		140.420451		-5.860222		-5.775752		-20.525241		
1.984091		1.009195		-3.379325		90.745174		-0.023178		1.385374		0.767568		30.033041		-6.585330		-19.351758		-28.667564		-24.465975		3.260183		23.820384		22.508452		-3.926049		-18.748901		-18.973758		-22.586741		4.867498		6.922225		-24.220371		2.128880		1.603717		-28.491264		5.704917		-1.448099		-48.665669		-39.761865		-13.289203		51.442547		134.846440		8.224902		-6.803617		-27.409479		-76.312511		-37.607349		-29.272223		66.215194		140.238842		-6.116296		-5.911634		-20.300650		
1.988182		0.966861		-3.243444		90.838855		-0.023410		1.373672		0.759083		29.594366		-6.676346		-19.739665		-27.787882		-24.718793		3.087470		23.712056		22.070671		-3.693971		-18.535939		-17.799074		-22.607735		4.719499		7.202880		-23.860663		2.181358		1.667489		-29.508488		5.503535		-1.629353		-51.474871		-38.729229		-14.460490		51.224599		134.441738		7.664521		-7.048825		-27.365128		-78.628719		-36.366568		-29.964618		66.066276		140.155155		-6.330007		-6.132549		-20.058553		
1.992273		0.952179		-3.133878		90.983781		-0.023649		1.361800		0.750619		29.095256		-6.726191		-20.115527		-26.750539		-24.901721		2.877383		23.611113		21.680748		-3.485659		-18.317318		-16.681889		-22.555327		4.398347		7.577411		-23.475795		2.283466		1.763391		-30.275054		5.291974		-1.904233		-54.205045		-37.622536		-15.501011		51.007116		134.054931		7.129916		-7.255623		-27.233493		-80.772181		-35.299355		-30.458118		65.838988		140.294726		-6.370845		-6.325456		-19.727191		
1.996364		0.964691		-2.979949		91.147050		-0.023703		1.349810		0.742111		28.552696		-6.737357		-20.479045		-25.761163		-25.062807		2.619036		23.513271		21.305523		-3.344773		-18.081712		-15.727083		-22.461177		3.877559		8.049080		-23.123671		2.398089		1.862638		-31.108293		5.069177		-2.219100		-56.843433		-36.433990		-16.448934		50.862395		133.716475		6.559945		-7.404658		-27.014823		-82.807612		-34.272081		-30.913359		65.572162		140.777924		-6.351332		-6.423681		-19.428741		
2.000455		0.925375		-2.918502		91.233685		-0.023830		1.337588		0.733772		28.083909		-6.746069		-20.672186		-24.655989		-25.112997		2.415408		23.436941		21.055213		-3.188000		-17.961808		-14.878116		-22.276766		3.445745		8.326218		-22.719153		2.428954		1.900799		-31.619195		4.918525		-2.373333		-59.161793		-35.441742		-16.976832		50.570159		133.554107		6.208888		-7.456855		-26.890830		-84.705090		-33.147800		-31.182557		65.232752		141.203647		-6.348874		-6.435609		-19.336709		
2.004545		0.933018		-2.682627		91.328894		-0.024117		1.325390		0.725212		27.512644		-6.759418		-21.005783		-23.824481		-25.142833		2.002403		23.312520		20.684236		-3.080894		-17.694292		-14.227990		-22.104523		2.626366		8.785295		-22.434617		2.547543		2.063555		-32.794101		4.797739		-2.596501		-61.668343		-34.154474		-17.960679		50.471704		133.370468		5.510091		-7.568934		-26.667187		-86.579027		-32.037831		-31.655540		65.076104		142.184708		-6.237613		-6.477651		-19.269098		
2.008636		0.960325		-2.525849		91.481019		-0.024313		1.312989		0.716965		26.976958		-6.727980		-21.267420		-22.862659		-25.095682		1.569388		23.087501		20.503669		-3.003616		-17.274476		-13.760101		-22.002215		1.727781		9.555012		-22.170567		2.697261		2.207284		-33.478664		4.663335		-2.789581		-63.884963		-32.831735		-18.729295		50.213228		133.545828		4.833924		-7.735500		-26.061133		-88.161961		-31.036570		-32.113263		64.787312		143.764738		-5.724841		-6.564653		-19.293959		
2.012727		0.946238		-2.445369		91.649465		-0.024381		1.300349		0.708937		26.545817		-6.730350		-21.371414		-21.920451		-25.047802		1.311896		22.894330		20.461996		-2.929803		-17.049053		-13.417330		-21.907560		1.165250		10.173236		-21.887566		2.764919		2.248595		-33.885940		4.547346		-2.880791		-65.823185		-31.640824		-19.136629		49.876613		133.767391		4.405851		-7.884082		-25.552619		-89.573723		-29.890555		-32.619080		64.356335		144.810600		-5.391335		-6.578668		-19.416663		
2.016818		0.882831		-2.313452		91.723163		-0.024262		1.287595		0.700851		26.139229		-6.754920		-21.373998		-21.141660		-24.906688		1.063974		22.812225		20.417762		-2.878221		-17.038802		-13.282350		-21.697146		0.856041		10.348635		-21.613984		2.718400		2.275952		-34.700531		4.506992		-2.806616		-67.652153		-30.478128		-19.540422		49.593436		133.786750		4.114425		-8.010036		-25.517137		-91.014601		-28.661883		-33.089001		63.921650		144.968012		-5.416825		-6.590428		-19.546221		
